<svg width="59" height="59" viewBox="0 0 59 59" fill="none" xmlns="http://www.w3.org/2000/svg">
<g filter="url(#filter0_d_126_7680)">
<rect x="4" width="51" height="51" rx="15" fill="#F0B372"/>
</g>
<path d="M25 12H19C18.2044 12 17.4413 12.3161 16.8787 12.8787C16.3161 13.4413 16 14.2044 16 15V21M25 12H40C40.7956 12 41.5587 12.3161 42.1213 12.8787C42.6839 13.4413 43 14.2044 43 15V21M25 12V39M16 21V36C16 36.7956 16.3161 37.5587 16.8787 38.1213C17.4413 38.6839 18.2044 39 19 39H25M16 21H43M43 21V36C43 36.7956 42.6839 37.5587 42.1213 38.1213C41.5587 38.6839 40.7956 39 40 39H25" stroke="#D9D9D9" stroke-width="4" stroke-linecap="round" stroke-linejoin="round"/>
<defs>
<filter id="filter0_d_126_7680" x="0" y="0" width="59" height="59" filterUnits="userSpaceOnUse" color-interpolation-filters="sRGB">
<feFlood flood-opacity="0" result="BackgroundImageFix"/>
<feColorMatrix in="SourceAlpha" type="matrix" values="0 0 0 0 0 0 0 0 0 0 0 0 0 0 0 0 0 0 127 0" result="hardAlpha"/>
<feOffset dy="4"/>
<feGaussianBlur stdDeviation="2"/>
<feComposite in2="hardAlpha" operator="out"/>
<feColorMatrix type="matrix" values="0 0 0 0 0 0 0 0 0 0 0 0 0 0 0 0 0 0 0.25 0"/>
<feBlend mode="normal" in2="BackgroundImageFix" result="effect1_dropShadow_126_7680"/>
<feBlend mode="normal" in="SourceGraphic" in2="effect1_dropShadow_126_7680" result="shape"/>
</filter>
</defs>
</svg>
