<svg width="59" height="59" viewBox="0 0 59 59" fill="none" xmlns="http://www.w3.org/2000/svg">
<g filter="url(#filter0_d_126_7694)">
<path d="M4 15C4 6.71573 10.7157 0 19 0H40C48.2843 0 55 6.71573 55 15V36C55 44.2843 48.2843 51 40 51H19C10.7157 51 4 44.2843 4 36V15Z" fill="#B082DE"/>
</g>
<path d="M18 36.375C18 35.4136 18.3786 34.4916 19.0526 33.8117C19.7265 33.1319 20.6406 32.75 21.5938 32.75H41" fill="#B082DE"/>
<path d="M21.5938 11H41V40H21.5938C20.6406 40 19.7265 39.6181 19.0526 38.9383C18.3786 38.2584 18 37.3364 18 36.375V14.625C18 13.6636 18.3786 12.7416 19.0526 12.0617C19.7265 11.3819 20.6406 11 21.5938 11Z" fill="#B082DE"/>
<path d="M18 36.375C18 35.4136 18.3786 34.4916 19.0526 33.8117C19.7265 33.1319 20.6406 32.75 21.5938 32.75H41M18 36.375C18 37.3364 18.3786 38.2584 19.0526 38.9383C19.7265 39.6181 20.6406 40 21.5938 40H41V11H21.5938C20.6406 11 19.7265 11.3819 19.0526 12.0617C18.3786 12.7416 18 13.6636 18 14.625V36.375Z" stroke="#D9D9D9" stroke-width="4" stroke-linecap="round" stroke-linejoin="round"/>
<defs>
<filter id="filter0_d_126_7694" x="0" y="0" width="59" height="59" filterUnits="userSpaceOnUse" color-interpolation-filters="sRGB">
<feFlood flood-opacity="0" result="BackgroundImageFix"/>
<feColorMatrix in="SourceAlpha" type="matrix" values="0 0 0 0 0 0 0 0 0 0 0 0 0 0 0 0 0 0 127 0" result="hardAlpha"/>
<feOffset dy="4"/>
<feGaussianBlur stdDeviation="2"/>
<feComposite in2="hardAlpha" operator="out"/>
<feColorMatrix type="matrix" values="0 0 0 0 0 0 0 0 0 0 0 0 0 0 0 0 0 0 0.25 0"/>
<feBlend mode="normal" in2="BackgroundImageFix" result="effect1_dropShadow_126_7694"/>
<feBlend mode="normal" in="SourceGraphic" in2="effect1_dropShadow_126_7694" result="shape"/>
</filter>
</defs>
</svg>
