<svg width="332" height="224" viewBox="0 0 350 224" fill="none" xmlns="http://www.w3.org/2000/svg">
<path d="M0 16.846C0 7.54221 7.54221 0 16.846 0H332.708C342.012 0 349.554 7.54221 349.554 16.846V206.363C349.554 215.667 342.012 223.209 332.708 223.209H16.846C7.54222 223.209 0 215.667 0 206.363V16.846Z" fill="#D9D9D9"/>
<path d="M4.88574 41.0625H45.2735L21.0574 82.1246H4.88574V41.0625Z" fill="#546850"/>
<path d="M21.2715 6.56885H328.5C336.748 6.56885 343.386 13.1212 343.386 21.144V201.994C343.386 210.016 336.748 216.569 328.5 216.569H21.2715C13.0234 216.569 6.38589 210.016 6.38574 201.994V21.144C6.38589 13.1212 13.0234 6.56885 21.2715 6.56885Z" stroke="#546850" stroke-width="3"/>
<path d="M206.363 41.0625L343.386 41.0625V82.1246L182.147 82.1246L206.363 41.0625Z" fill="#546850"/>
<path d="M180.568 82.1246H173.724L197.94 41.0625H204.784L180.568 82.1246Z" fill="#546850"/>
<path d="M168.986 82.1246H166.354L190.57 41.0625H193.202L168.986 82.1246Z" fill="#546850"/>
</svg>
