<svg width="18" height="18" viewBox="0 0 18 18" fill="none" xmlns="http://www.w3.org/2000/svg">
<path d="M10.75 7.64583C10.75 7.01287 11.3095 6.5 12 6.5C12.6905 6.5 13.25 7.01287 13.25 7.64583C13.25 8.27879 12.6905 8.79167 12 8.79167C11.3095 8.79167 10.75 8.27879 10.75 7.64583ZM14.5 11.0833V12.4583C14.5 13.1339 14.095 13.7188 13.5 14.0368V17.0417C13.5 17.2947 13.2765 17.5 13 17.5C12.7235 17.5 12.5 17.2947 12.5 17.0417V14.2917H11.5V17.0417C11.5 17.2947 11.2765 17.5 11 17.5C10.7235 17.5 10.5 17.2947 10.5 17.0417V14.0368C9.905 13.7188 9.5 13.1339 9.5 12.4583V11.0833C9.5 10.0723 10.397 9.25 11.5 9.25H12.5C13.603 9.25 14.5 10.0723 14.5 11.0833Z" fill="#currentColor"/>
</svg>
