<svg width="18" height="18" viewBox="0 0 18 18" fill="none" xmlns="http://www.w3.org/2000/svg">
<path d="M10.854 8.5625C10.854 7.92954 11.3668 7.41667 11.9998 7.41667C12.6327 7.41667 13.1456 7.92954 13.1456 8.5625C13.1456 9.19546 12.6327 9.70833 11.9998 9.70833C11.3668 9.70833 10.854 9.19546 10.854 8.5625ZM14.2913 12V13.375C14.2913 14.0506 13.9201 14.6354 13.3747 14.9535V17.0417C13.3747 17.2947 13.1694 17.5 12.9164 17.5C12.6634 17.5 12.4581 17.2947 12.4581 17.0417V15.2083H11.5415V17.0417C11.5415 17.2947 11.3361 17.5 11.0831 17.5C10.8302 17.5 10.6248 17.2947 10.6248 17.0417V14.9535C10.0794 14.6354 9.7082 14.0506 9.7082 13.375V12C9.7082 10.9889 10.5304 10.1667 11.5415 10.1667H12.4581C13.4691 10.1667 14.2913 10.9889 14.2913 12ZM8.79157 8.79167C9.4245 8.79167 9.93736 8.27879 9.93736 7.64583C9.93736 7.01287 9.4245 6.5 8.79157 6.5C8.15864 6.5 7.64579 7.01287 7.64579 7.64583C7.64579 8.27879 8.15864 8.79167 8.79157 8.79167ZM15.208 8.79167C15.8409 8.79167 16.3538 8.27879 16.3538 7.64583C16.3538 7.01287 15.8409 6.5 15.208 6.5C14.575 6.5 14.0622 7.01287 14.0622 7.64583C14.0622 8.27879 14.575 8.79167 15.208 8.79167ZM15.6663 9.25H14.7497C14.4087 9.25 14.0934 9.34946 13.8197 9.51217C13.8064 9.53783 13.7927 9.5635 13.7785 9.58871C14.63 10.0567 15.2084 10.9619 15.2084 12V13.375C15.2084 13.6913 15.1498 14.0006 15.0448 14.2917H15.6667V16.125C15.6667 16.378 15.8721 16.5833 16.1251 16.5833C16.378 16.5833 16.5834 16.378 16.5834 16.125V14.0368C17.1288 13.7188 17.5 13.1339 17.5 12.4583V11.0833C17.5 10.0723 16.6773 9.25 15.6663 9.25ZM8.79157 13.375V12C8.79157 10.9619 9.36996 10.0567 10.2215 9.58871C10.2068 9.5635 10.1936 9.53829 10.1803 9.51217C9.90665 9.34946 9.59087 9.25 9.25034 9.25H8.33372C7.32222 9.25 6.5 10.0723 6.5 11.0833V12.4583C6.5 13.1339 6.87123 13.7188 7.41663 14.0368V16.125C7.41663 16.378 7.62195 16.5833 7.87494 16.5833C8.12793 16.5833 8.33326 16.378 8.33326 16.125V14.2917H8.95519C8.85024 14.0006 8.79157 13.6913 8.79157 13.375Z" fill="#currentColor"/>
</svg>
