<svg width="18" height="18" viewBox="0 0 18 18" fill="none" xmlns="http://www.w3.org/2000/svg">
<path d="M11.9999 13.8333C13.012 13.8333 13.8325 13.0128 13.8325 12.0006C13.8325 10.9885 13.012 10.168 11.9999 10.168C10.9877 10.168 10.1672 10.9885 10.1672 12.0006C10.1672 13.0128 10.9877 13.8333 11.9999 13.8333Z" fill="#currentColor"/>
<path d="M17.164 10.8178C16.4534 9.66046 14.837 7.71875 12 7.71875C9.16305 7.71875 7.54664 9.66046 6.83603 10.8178C6.38799 11.5425 6.38799 12.4581 6.83603 13.1828C7.54664 14.3402 9.16305 16.2819 12 16.2819C14.837 16.2819 16.4534 14.3402 17.164 13.1828C17.612 12.4581 17.612 11.5425 17.164 10.8178ZM12 14.7493C10.4818 14.7493 9.25101 13.5185 9.25101 12.0003C9.25101 10.4821 10.4818 9.25131 12 9.25131C13.5182 9.25131 14.749 10.4821 14.749 12.0003C14.7475 13.5179 13.5176 14.7478 12 14.7493Z" fill="#currentColor"/>
</svg>
