<svg width="18" height="18" viewBox="0 0 18 18" fill="none" xmlns="http://www.w3.org/2000/svg">
<path d="M16.5 15.5278V16.8125C16.5 17.192 16.212 17.5 15.8572 17.5H9.0801C8.84911 17.5 8.62798 17.4005 8.46684 17.2236L7.80559 16.4995C7.46832 16.1378 7.38904 15.5535 7.67488 15.1437C7.97273 14.7161 8.49856 14.6221 8.89754 14.86C8.99267 14.9265 9.06467 14.9842 9.10624 15.0282L10.0713 16.0787V9.25C10.0713 8.69313 10.5355 8.25267 11.0724 8.34571C11.4937 8.41904 11.7855 8.84208 11.7855 9.29904V12.6875L15.2632 13.7669C15.9956 13.9942 16.5 14.712 16.5 15.5278ZM9.09038 11.6847C9.28237 11.5366 9.32608 11.2502 9.18809 11.0448C8.92496 10.6539 8.78611 10.1919 8.78611 9.70833C8.78611 8.44471 9.74735 7.41667 10.9289 7.41667C12.1104 7.41667 13.0716 8.44471 13.0716 9.70833C13.0716 10.1923 12.9328 10.6543 12.6696 11.0448C12.5312 11.2502 12.5749 11.5366 12.7673 11.6847C12.8432 11.7429 12.9306 11.7708 13.0172 11.7708C13.1505 11.7708 13.2816 11.7044 13.3652 11.5802C13.7337 11.0325 13.9283 10.3853 13.9283 9.70833C13.9283 7.93917 12.5826 6.5 10.9284 6.5C9.27423 6.5 7.92901 7.93917 7.92901 9.70833C7.92901 10.3853 8.124 11.0325 8.49213 11.5802C8.63012 11.7855 8.89754 11.8323 9.09038 11.6847Z" fill="#currentColor"/>
</svg>
