<svg width="18" height="18" viewBox="0 0 18 18" fill="none" xmlns="http://www.w3.org/2000/svg">
<path d="M11.5831 14.083V15.7271C11.5831 16.2971 11.2015 16.8096 10.6465 16.9396C10.479 16.9788 10.3044 16.9996 10.1249 16.9996C9.11575 16.9996 8.2437 16.3513 7.94454 15.4017C7.3579 15.018 7 14.3689 7 13.6664C7 13.2972 7.09791 12.9427 7.28582 12.6248C7.09833 12.3069 7 11.9523 7 11.5831C7 10.9298 7.31332 10.3165 7.8333 9.9253V9.91655C7.8333 9.12616 8.38619 8.46286 9.12575 8.29245C9.29615 7.55331 9.95988 7 10.7498 7H10.759C11.2144 7.00125 11.5831 7.37123 11.5831 7.82663V10.3332H10.6344C10.4903 10.0853 10.2244 9.91655 9.91655 9.91655C9.45615 9.91655 9.08325 10.2894 9.08325 10.7498C9.08325 11.2102 9.45615 11.5831 9.91655 11.5831C10.224 11.5831 10.4899 11.4144 10.6344 11.1665H11.5831V13.2497H10.6344C10.4903 13.0018 10.2244 12.8331 9.91655 12.8331C9.45615 12.8331 9.08325 13.206 9.08325 13.6664C9.08325 14.1268 9.45615 14.4997 9.91655 14.4997C10.224 14.4997 10.4899 14.3309 10.6344 14.083H11.5831ZM16.9996 11.5831C16.9996 10.9298 16.6863 10.3165 16.1663 9.9253V9.91655C16.1663 9.12616 15.6134 8.46286 14.8738 8.29245C14.7034 7.55331 14.0397 7 13.2497 7H13.2406C12.7852 7.00125 12.4164 7.37082 12.4164 7.82622V11.9998H13.2497C13.6664 11.9998 13.6664 11.5831 13.6664 11.5831V11.4677C13.3635 11.2915 13.1793 10.9344 13.2756 10.5411C13.3489 10.2411 13.601 9.99904 13.903 9.93571C14.4422 9.8228 14.9168 10.2311 14.9168 10.7503C14.9168 11.0577 14.748 11.3236 14.5001 11.4681V11.5836C14.5001 12.2739 13.9405 12.8335 13.2502 12.8335H12.4169V15.7276C12.4169 16.2975 12.7985 16.81 13.3531 16.94C13.5206 16.9792 13.6956 17 13.8751 17C14.8843 17 15.7563 16.3517 16.0555 15.4022C16.6421 15.0184 17 14.3693 17 13.6668C17 13.2977 16.9021 12.9431 16.7142 12.6252C16.9017 12.3073 16.9996 11.9523 16.9996 11.5831Z" fill="#currentColor"/>
</svg>
