<svg width="18" height="18" viewBox="0 0 18 18" fill="none" xmlns="http://www.w3.org/2000/svg">
<path d="M15.213 11.9806C15.213 10.7215 15.1424 9.69294 14.9933 8.85537C15.1309 8.85997 15.2662 8.87053 15.3937 8.89532C16.6794 9.13135 17.7314 10.3629 17.4558 11.7194C17.3375 12.3062 16.447 13.4018 14.538 13.9506C14.9594 13.4064 15.213 12.7259 15.213 11.9861C15.213 11.9843 15.213 11.9825 15.213 11.9806ZM13.0106 9.93493C12.7052 9.78386 12.3663 9.6911 12.0031 9.6911C10.7389 9.6911 9.71034 10.7211 9.71034 11.9871C9.71034 12.5987 10.2482 13.135 10.8618 13.135C11.1598 13.135 11.4295 13.0156 11.6289 12.8242C11.3093 12.6804 11.086 12.3608 11.086 11.9871C11.086 10.8391 12.0572 10.0011 13.0106 9.93493ZM14.2959 11.9871C14.2959 11.3754 13.7603 10.8391 13.1495 10.8391C12.8505 10.8391 12.5804 10.9589 12.38 11.1518C12.6978 11.296 12.9202 11.6147 12.9202 11.9871C12.9202 13.135 11.9595 13.9749 10.9966 14.0396C11.302 14.1903 11.6404 14.283 12.0031 14.283C13.2673 14.283 14.2959 13.2531 14.2959 11.9871ZM10.92 15.0099C12.0302 16.6226 13.5388 17.3224 14.3193 17.3224C15.6858 17.3849 16.546 16.1161 16.5451 14.8726C16.5451 14.6315 16.5057 14.379 16.436 14.1269C15.3785 14.7482 14.0574 15.2014 12.0027 15.2014V15.2005C11.6225 15.2005 11.2589 15.1321 10.92 15.0099ZM8.85651 12.618C8.21683 14.0217 8.03524 15.4296 8.25718 16.1533C8.60385 17.4239 9.99418 17.7283 11.0888 17.3458C11.2662 17.2843 11.4409 17.1925 11.6115 17.0873C10.6027 16.28 9.36642 14.7597 8.85651 12.618ZM14.1771 9.62819C13.9616 7.80429 13.4925 7.21285 13.1151 6.93228C12.0861 6.06579 10.6962 6.61498 9.98318 7.58341C9.85937 7.75194 9.76032 7.95169 9.67365 8.16154C10.3977 8.20424 12.4851 8.34889 14.1771 9.62819ZM9.34854 9.06247C8.58413 9.0767 7.82843 9.37839 7.37538 9.65575C6.24046 10.317 6.31199 11.8544 7.00441 12.8099C7.11675 12.9684 7.33365 13.1805 7.58356 13.3734C7.94674 12.1896 8.6873 10.4446 10.4358 9.18737C10.0625 9.10609 9.69979 9.05512 9.34854 9.06247Z" fill="#currentColor"/>
</svg>
