<svg width="18" height="18" viewBox="0 0 18 18" fill="none" xmlns="http://www.w3.org/2000/svg">
<path d="M16.7749 11.6784C16.6154 10.8963 16.4518 10.1786 16.3033 9.5625L12.7495 10.2901C12.745 10.1351 12.7405 9.98509 12.735 9.84056H10.0903V14.1619H12.735C12.7575 13.5298 12.7741 12.7977 12.7741 12.008C12.7741 11.5644 12.769 11.1408 12.7605 10.7427C12.8511 11.2608 12.9571 11.831 13.0801 12.4346C13.2386 13.2112 13.4006 13.9244 13.5486 14.5375L17.1674 13.7969C17.0629 13.1732 16.9329 12.4526 16.7749 11.6789V11.6784Z" fill="#currentColor"/>
<path d="M12.5365 9.37007L16.0743 8.64592C15.8713 7.85926 15.7313 7.38466 15.7288 7.37516C15.6853 7.22863 15.5743 7.11261 15.4298 7.0631C15.3993 7.0526 14.6667 6.80555 13.8881 6.96458C13.2901 7.0871 12.8091 7.42167 12.609 7.5782C12.595 7.42767 12.5095 7.29315 12.379 7.21613C12.351 7.19963 11.682 6.81055 10.8884 6.81055C10.5974 6.81055 10.3229 6.86306 10.0903 6.93057V8.89647H12.467C12.4875 9.039 12.5105 9.19753 12.5365 9.37007Z" fill="#currentColor"/>
<path d="M17.4974 16.0453C17.4964 16.0358 17.4379 15.5367 17.3154 14.7275L13.7761 15.4522C13.9806 16.2468 14.1227 16.7264 14.1252 16.7359C14.1692 16.885 14.2837 17.0025 14.4317 17.0505C14.4547 17.058 15.1017 17.2941 15.9628 17.1335C16.7339 16.9755 17.3139 16.4769 17.3384 16.4559C17.4554 16.3534 17.5149 16.2003 17.4969 16.0458L17.4974 16.0453Z" fill="#currentColor"/>
<path d="M6.5 12.0087C6.5 12.8014 6.516 13.5326 6.5385 14.1627H9.14621V9.8418H6.539C6.5165 10.4769 6.5 11.2136 6.5 12.0092V12.0087Z" fill="#currentColor"/>
<path d="M10.0891 17.0724C10.3211 17.1375 10.5957 17.188 10.8872 17.188C11.6743 17.188 12.3423 16.8159 12.3703 16.7999C12.5058 16.7234 12.5948 16.5848 12.6078 16.4298C12.6088 16.4203 12.6513 15.9192 12.6928 15.1025H10.0886V17.0729L10.0891 17.0724Z" fill="#currentColor"/>
<path d="M6.66412 16.4303C6.67762 16.5853 6.76663 16.7234 6.90164 16.7999C6.92964 16.8159 7.5962 17.1885 8.38526 17.1885C8.66078 17.1885 8.9218 17.143 9.14632 17.0829V15.1025H6.57861C6.62012 15.9222 6.66312 16.4208 6.66412 16.4303Z" fill="#currentColor"/>
<path d="M6.89414 7.21563C6.76263 7.29315 6.67662 7.42967 6.66312 7.5817C6.66212 7.59121 6.62012 8.08681 6.57861 8.89597H9.14482V6.91957C8.9208 6.85756 8.65978 6.81055 8.38376 6.81055C7.5922 6.81055 6.92164 7.19963 6.89364 7.21563H6.89414Z" fill="#currentColor"/>
</svg>
