<svg width="18" height="18" viewBox="0 0 18 18" fill="none" xmlns="http://www.w3.org/2000/svg">
<path d="M12.9167 9.25C12.4102 9.25 12 9.66021 12 10.1667C12 9.66021 11.5898 9.25 11.0833 9.25C10.5769 9.25 10.1667 9.66021 10.1667 10.1667C10.1667 10.8977 11.0238 11.9216 11.5655 12.3561C11.8203 12.5605 12.1792 12.5605 12.434 12.3561C12.9762 11.9216 13.8329 10.8977 13.8329 10.1667C13.8329 9.66021 13.4227 9.25 12.9162 9.25H12.9167ZM7.64583 7.64583C7.64583 7.01287 8.15871 6.5 8.79167 6.5C9.42463 6.5 9.9375 7.01287 9.9375 7.64583C9.9375 8.27879 9.42463 8.79167 8.79167 8.79167C8.15871 8.79167 7.64583 8.27879 7.64583 7.64583ZM10.977 13.0588C10.8308 13.4726 10.542 13.8191 10.1667 14.0373V17.0417C10.1667 17.2951 9.96133 17.5 9.70833 17.5C9.45533 17.5 9.25 17.2951 9.25 17.0417V14.2917H8.33333V17.0417C8.33333 17.2951 8.128 17.5 7.875 17.5C7.622 17.5 7.41667 17.2951 7.41667 17.0417V14.0373C6.87079 13.7197 6.5 13.1353 6.5 12.4583V11.0833C6.5 10.0709 7.32087 9.25 8.33333 9.25H9.25C9.33296 9.25 9.41179 9.26375 9.49154 9.27429C9.34213 9.53967 9.25 9.84125 9.25 10.1667C9.25 11.3913 10.4825 12.6568 10.977 13.0588ZM15.2083 8.79167C14.5754 8.79167 14.0625 8.27879 14.0625 7.64583C14.0625 7.01287 14.5754 6.5 15.2083 6.5C15.8413 6.5 16.3542 7.01287 16.3542 7.64583C16.3542 8.27879 15.8413 8.79167 15.2083 8.79167ZM14.75 10.1667C14.75 9.84125 14.6574 9.53967 14.5085 9.27429C14.5882 9.26375 14.6675 9.25 14.75 9.25H15.6667C16.6791 9.25 17.5 10.0709 17.5 11.0833V12.4583C17.5 13.1353 17.1292 13.7197 16.5833 14.0373V17.0417C16.5833 17.2951 16.378 17.5 16.125 17.5C15.872 17.5 15.6667 17.2951 15.6667 17.0417V14.2917H14.75V17.0417C14.75 17.2951 14.5447 17.5 14.2917 17.5C14.0387 17.5 13.8333 17.2951 13.8333 17.0417V14.0373C13.458 13.8191 13.1692 13.4726 13.023 13.0588C13.5175 12.6573 14.75 11.3913 14.75 10.1667Z" fill="#currentColor"/>
</svg>
