<svg width="18" height="18" viewBox="0 0 18 18" fill="none" xmlns="http://www.w3.org/2000/svg">
<path d="M16.7427 16.3819C17.0168 16.4851 17.2761 16.5824 17.4984 16.5824V17.5C17.1098 17.5 16.7441 17.3628 16.421 17.2417C16.147 17.1385 15.8876 17.0412 15.6653 17.0412C15.4431 17.0412 15.1837 17.1385 14.9097 17.2417C14.5866 17.3628 14.2209 17.5 13.8323 17.5C13.4437 17.5 13.078 17.3628 12.7549 17.2417C12.4808 17.1385 12.2215 17.0412 11.9992 17.0412C11.7769 17.0412 11.5176 17.1385 11.2435 17.2417C10.9204 17.3628 10.5547 17.5 10.1661 17.5C9.77752 17.5 9.41183 17.3628 9.08875 17.2417C8.81471 17.1385 8.55533 17.0412 8.33307 17.0412C8.11081 17.0412 7.85143 17.1385 7.57739 17.2417C7.25431 17.3628 6.88861 17.5 6.5 17.5V16.5824C6.72226 16.5824 6.98164 16.4851 7.25568 16.3819C7.57876 16.2608 7.94446 16.1236 8.33307 16.1236C8.72168 16.1236 9.08737 16.2608 9.41045 16.3819C9.45445 16.3984 9.49752 16.414 9.5406 16.4301L11.3934 12.2421L6.78413 10.1982L6.96972 9.77882C7.56455 8.43407 8.64698 7.40223 10.0172 6.87231C11.3874 6.34285 12.8814 6.3791 14.225 6.97462C15.5682 7.57015 16.5993 8.65384 17.1281 10.0257C17.657 11.3975 17.6208 12.8936 17.0259 14.2384L16.8403 14.6582L12.2315 12.6142L10.5007 16.5269C10.6349 16.4893 10.7761 16.437 10.9223 16.3824C11.2454 16.2612 11.611 16.1241 11.9997 16.1241C12.3883 16.1241 12.754 16.2612 13.077 16.3824C13.3511 16.4856 13.6105 16.5829 13.8327 16.5829C14.055 16.5829 14.3144 16.4856 14.5884 16.3824C14.9115 16.2612 15.2772 16.1241 15.6658 16.1241C16.0544 16.1241 16.4196 16.2608 16.7427 16.3819Z" fill="#currentColor"/>
</svg>
