<svg width="25" height="20" viewBox="0 0 25 20" fill="none" xmlns="http://www.w3.org/2000/svg">
<path d="M3.3 1H21.7C22.965 1 24 2.0125 24 3.25V16.75C24 17.9875 22.965 19 21.7 19H3.3C2.035 19 1 17.9875 1 16.75V3.25C1 2.0125 2.035 1 3.3 1Z" fill="#546850"/>
<path d="M24 3.25L12.5 11.125L1 3.25" fill="#546850"/>
<path d="M24 3.25C24 2.0125 22.965 1 21.7 1H3.3C2.035 1 1 2.0125 1 3.25M24 3.25V16.75C24 17.9875 22.965 19 21.7 19H3.3C2.035 19 1 17.9875 1 16.75V3.25M24 3.25L12.5 11.125L1 3.25" stroke="#D9D9D9" stroke-linecap="round" stroke-linejoin="round"/>
</svg>
