<svg width="18" height="18" viewBox="0 0 18 18" fill="none" xmlns="http://www.w3.org/2000/svg">
<path d="M13.8333 17.5H10.1667C9.86482 17.4988 9.57176 17.3983 9.33271 17.214C9.09366 17.0297 8.92189 16.7718 8.84392 16.4802C8.97517 15.7385 9.36343 15.0668 9.94055 14.5828C10.5177 14.0989 11.2468 13.8336 12 13.8336C12.7532 13.8336 13.4823 14.0989 14.0594 14.5828C14.6366 15.0668 15.0248 15.7385 15.1561 16.4802C15.0781 16.7718 14.9063 17.0297 14.6673 17.214C14.4282 17.3983 14.1352 17.4988 13.8333 17.5ZM7.875 16.125V12.6527C7.46679 12.8308 7.11934 13.1241 6.87515 13.4966C6.63095 13.869 6.50059 14.3046 6.5 14.75L6.5 15.2083C6.50071 15.7299 6.67932 16.2356 7.00632 16.642C7.33332 17.0483 7.78915 17.3309 8.2985 17.4432C8.02352 17.0586 7.87546 16.5978 7.875 16.125ZM16.125 12.6527V16.125C16.1245 16.5978 15.9765 17.0586 15.7015 17.4432C16.2109 17.3309 16.6667 17.0483 16.9937 16.642C17.3207 16.2356 17.4993 15.7299 17.5 15.2083V14.75C17.4994 14.3046 17.3691 13.869 17.1249 13.4966C16.8807 13.1241 16.5332 12.8308 16.125 12.6527ZM15.2083 11.5417V14.4548C14.8227 13.9747 14.3343 13.5872 13.779 13.321C13.2237 13.0548 12.6158 12.9166 12 12.9166C11.3842 12.9166 10.7763 13.0548 10.221 13.321C9.66571 13.5872 9.17726 13.9747 8.79167 14.4548V11.5417C8.79199 11.0251 8.91719 10.5162 9.15661 10.0585C9.39602 9.6007 9.74255 9.20761 10.1667 8.91267V8.33333C10.1667 7.8471 10.3598 7.38079 10.7036 7.03697C11.0475 6.69315 11.5138 6.5 12 6.5C12.4862 6.5 12.9525 6.69315 13.2964 7.03697C13.6402 7.38079 13.8333 7.8471 13.8333 8.33333V8.91267C14.2574 9.20761 14.604 9.6007 14.8434 10.0585C15.0828 10.5162 15.208 11.0251 15.2083 11.5417ZM11.0833 8.47083C11.6811 8.29055 12.3189 8.29055 12.9167 8.47083V8.33333C12.9167 8.09022 12.8201 7.85706 12.6482 7.68515C12.4763 7.51324 12.2431 7.41667 12 7.41667C11.7569 7.41667 11.5237 7.51324 11.3518 7.68515C11.1799 7.85706 11.0833 8.09022 11.0833 8.33333V8.47083ZM13.375 11.0833C13.375 10.9618 13.3267 10.8452 13.2408 10.7592C13.1548 10.6733 13.0382 10.625 12.9167 10.625H11.0833C10.9618 10.625 10.8452 10.6733 10.7592 10.7592C10.6733 10.8452 10.625 10.9618 10.625 11.0833C10.625 11.2049 10.6733 11.3215 10.7592 11.4074C10.8452 11.4934 10.9618 11.5417 11.0833 11.5417H12.9167C13.0382 11.5417 13.1548 11.4934 13.2408 11.4074C13.3267 11.3215 13.375 11.2049 13.375 11.0833Z" fill="#currentColor"/>
</svg>
