<svg width="18" height="18" viewBox="0 0 18 18" fill="none" xmlns="http://www.w3.org/2000/svg">
<path d="M15.3348 6.40605C15.2093 6.23667 15.0333 6.11109 14.832 6.04718C14.6307 5.98328 14.4142 5.98431 14.2135 6.05014C14.0128 6.11597 13.8381 6.24323 13.7142 6.41379C13.5904 6.58435 13.5237 6.78951 13.5237 7.00004V18H14.5273V15.833C16.9361 13.207 18.2408 10.078 15.3348 6.40605ZM12.0182 6.00005V10.5C12.0182 10.8979 11.8596 11.2794 11.5773 11.5607C11.295 11.842 10.912 12 10.5128 12H10.0109V18H9.00729V12H8.50547C8.10619 12 7.72327 11.842 7.44094 11.5607C7.15861 11.2794 7 10.8979 7 10.5V6.00005H8.00365V10.5C8.00365 10.6326 8.05652 10.7598 8.15063 10.8536C8.24474 10.9473 8.37238 11 8.50547 11H9.00729V6.00005H10.0109V11H10.5128C10.6459 11 10.7735 10.9473 10.8676 10.8536C10.9617 10.7598 11.0146 10.6326 11.0146 10.5V6.00005H12.0182Z" fill="#currentColor"/>
</svg>
