<svg width="23" height="23" viewBox="0 0 23 23" fill="none" xmlns="http://www.w3.org/2000/svg">
<path d="M22.9993 17.2199V20.6823C23.0006 21.0038 22.9346 21.3219 22.8056 21.6164C22.6766 21.911 22.4873 22.1753 22.25 22.3926C22.0127 22.6099 21.7325 22.7754 21.4274 22.8783C21.1223 22.9813 20.799 23.0196 20.4783 22.9906C16.9197 22.6047 13.5015 21.3912 10.4982 19.4474C7.7041 17.6754 5.33515 15.3112 3.55964 12.5226C1.60524 9.51164 0.388978 6.08359 0.00938643 2.51614C-0.0195123 2.19698 0.0184932 1.87532 0.120983 1.57162C0.223472 1.26792 0.3882 0.988853 0.604679 0.752176C0.821158 0.515498 1.08464 0.326399 1.37836 0.196919C1.67208 0.0674383 1.98959 0.000413681 2.31069 0.000111897H5.77999C6.34122 -0.0054008 6.8853 0.192944 7.31083 0.558177C7.73637 0.923411 8.01431 1.43061 8.09286 1.98524C8.23929 3.09329 8.51085 4.18126 8.90236 5.22838C9.05795 5.64147 9.09163 6.09042 8.99939 6.52203C8.90716 6.95364 8.69289 7.34982 8.38197 7.66362L6.9133 9.12938C8.55954 12.0188 10.9567 14.4112 13.8519 16.0542L15.3206 14.5885C15.635 14.2782 16.032 14.0643 16.4644 13.9723C16.8969 13.8802 17.3467 13.9138 17.7606 14.0691C18.8098 14.4598 19.9 14.7309 21.0102 14.877C21.572 14.9561 22.085 15.2385 22.4518 15.6705C22.8185 16.1025 23.0134 16.6539 22.9993 17.2199Z" fill="#546850"/>
</svg>
