<svg width="24" height="36" viewBox="0 0 24 36" fill="none" xmlns="http://www.w3.org/2000/svg">
<path d="M8.5695 12.3506C8.5695 13.0484 8.77072 13.7305 9.14769 14.3107C9.52467 14.8909 10.0605 15.3431 10.6874 15.6102C11.3143 15.8772 12.0041 15.9471 12.6696 15.8109C13.3351 15.6748 13.9464 15.3388 14.4262 14.8454C14.906 14.3519 15.2327 13.7233 15.3651 13.0389C15.4975 12.3545 15.4295 11.6451 15.1699 11.0004C14.9102 10.3558 14.4705 9.80475 13.9063 9.41707C13.3421 9.0294 12.6788 8.82248 12.0003 8.82248C11.0904 8.82248 10.2177 9.19419 9.57435 9.85584C8.93096 10.5175 8.5695 11.4149 8.5695 12.3506ZM3.49541 21.4955L8.74104 26.8424C9.16666 27.2837 9.67303 27.634 10.231 27.873C10.7889 28.112 11.3873 28.2351 11.9917 28.2351C12.5961 28.2351 13.1945 28.112 13.7524 27.873C14.3103 27.634 14.8167 27.2837 15.2423 26.8424L20.4845 21.5237C22.7355 19.1372 23.9962 15.9442 24 12.6195C24.0038 9.29474 22.7506 6.09868 20.5051 3.70669C19.4015 2.5341 18.0799 1.6017 16.6188 0.96492C15.1578 0.328144 13.5871 0 12.0003 0C10.4134 0 8.84276 0.328144 7.38171 0.96492C5.92065 1.6017 4.59902 2.5341 3.49541 3.70669C1.25333 6.09353 0.000165582 9.28247 0.000165582 12.6011C0.000165582 15.9197 1.25333 19.1087 3.49541 21.4955ZM5.13874 12.3506C5.13874 10.955 5.54116 9.59075 6.29512 8.43036C7.04907 7.26996 8.12069 6.36555 9.37447 5.83148C10.6283 5.2974 12.0079 5.15767 13.3389 5.42993C14.6699 5.7022 15.8925 6.37424 16.8521 7.36108C17.8117 8.34791 18.4652 9.60522 18.73 10.974C18.9947 12.3428 18.8588 13.7615 18.3395 15.0509C17.8202 16.3403 16.9407 17.4423 15.8123 18.2177C14.684 18.993 13.3573 19.4069 12.0003 19.4069C10.1805 19.4069 8.43522 18.6634 7.14844 17.3401C5.86165 16.0168 5.13874 14.222 5.13874 12.3506Z" fill="#BEC94A"/>
<path d="M1.41192 12.601C1.41194 9.63622 2.53243 6.79485 4.52495 4.67368V4.6723C5.49853 3.63835 6.66232 2.81893 7.94542 2.25963C9.22929 1.70008 10.6083 1.41178 12.0001 1.41175C13.392 1.41175 14.7708 1.70006 16.0547 2.25963C17.3379 2.81889 18.503 3.637 19.4766 4.67092L19.4752 4.6723C21.4709 6.79819 22.5916 9.64711 22.5882 12.6176C22.5848 15.588 21.4578 18.4335 19.4573 20.5545L14.2363 25.8514L14.2266 25.8624C13.9304 26.1695 13.5797 26.411 13.1968 26.5752C12.8138 26.7393 12.4042 26.8233 11.9918 26.8233V28.2351C12.5207 28.2351 13.0448 28.1403 13.5414 27.9566L13.7524 27.8725C14.3102 27.6335 14.8171 27.2839 15.2427 26.8426L20.4844 21.5237C22.7354 19.1373 23.9962 15.9437 24 12.6189C24.0037 9.29451 22.7503 6.09906 20.5051 3.70724C19.5395 2.68129 18.4072 1.83844 17.1604 1.21736L16.6186 0.965067C15.1576 0.328326 13.5869 0 12.0001 0L11.4059 0.0151653C10.0223 0.086706 8.65989 0.407922 7.38155 0.965067C5.92056 1.60184 4.59865 2.53469 3.49509 3.70724C1.25329 6.094 0.000186623 9.28263 0.00016561 12.601C0.00016561 15.9196 1.25301 19.1093 3.49509 21.4962L8.74091 26.8426C9.16651 27.2839 9.67336 27.6335 10.2312 27.8725C10.7891 28.1115 11.3874 28.2351 11.9918 28.2351V26.8233C11.5794 26.8233 11.1699 26.7393 10.7869 26.5752C10.4038 26.411 10.0533 26.1696 9.75699 25.8624L9.74872 25.8541L4.52495 20.5283C2.53242 18.4072 1.41192 15.5658 1.41192 12.601ZM5.13846 12.3501C5.13854 11.129 5.44695 9.93197 6.02907 8.87448L6.29516 8.43055C6.95495 7.41508 7.85772 6.59497 8.91324 6.04821L9.3751 5.83176C10.6288 5.29784 12.0079 5.15833 13.3388 5.43057L13.8323 5.55051C14.9711 5.87496 16.012 6.49737 16.8516 7.3607L17.1977 7.74397C17.969 8.66437 18.4977 9.77667 18.7293 10.9742L18.8107 11.4898C18.9548 12.6958 18.7935 13.9229 18.3392 15.0509C17.8198 16.3402 16.9404 17.4424 15.8121 18.2177C14.8248 18.8961 13.6859 19.2984 12.5074 19.3882L12.0001 19.4075C10.1804 19.4074 8.43529 18.6628 7.14855 17.3395C5.94229 16.0989 5.2308 14.4443 5.14673 12.7003L5.13846 12.3501ZM9.98171 12.3501C9.98184 11.7764 10.2039 11.2344 10.5869 10.8405C10.9688 10.4478 11.4776 10.2339 12.0001 10.2338C12.3905 10.2338 12.776 10.3537 13.1071 10.5813C13.4385 10.8091 13.7024 11.1373 13.8599 11.5284C14.0175 11.9199 14.0593 12.3525 13.9785 12.7706C13.8976 13.1885 13.6999 13.5676 13.4146 13.8611C13.1295 14.1543 12.7701 14.3492 12.3861 14.4277C12.0025 14.5061 11.6043 14.4669 11.2404 14.3119C10.8759 14.1567 10.5585 13.89 10.3319 13.5413C10.105 13.1921 9.98171 12.7773 9.98171 12.3501ZM8.56996 12.3501C8.56996 13.0478 8.7707 13.7304 9.14762 14.3106L9.29651 14.5215C9.66022 15.0006 10.1389 15.3769 10.6876 15.6106L10.9247 15.7016C11.4859 15.8921 12.0877 15.9297 12.6701 15.8106C13.2522 15.6914 13.793 15.4199 14.2404 15.0233L14.4265 14.8455C14.8462 14.4139 15.1483 13.8785 15.3061 13.2931L15.3654 13.0394C15.4813 12.4403 15.4432 11.8216 15.2579 11.2444L15.1696 11.0004C14.9424 10.4363 14.5779 9.9433 14.1122 9.56933L13.9068 9.41767C13.3426 9.03 12.6786 8.82209 12.0001 8.82209L11.6609 8.84001C10.8757 8.92025 10.1379 9.27733 9.575 9.85609C8.93173 10.5176 8.57009 11.4146 8.56996 12.3501ZM3.7267 12.3501C3.7267 14.5834 4.58967 16.733 6.13661 18.3239C7.68487 19.9161 9.79299 20.8192 12.0001 20.8192C13.6453 20.8192 15.2503 20.3167 16.6117 19.3813C17.9725 18.4463 19.0275 17.1215 19.6489 15.5789C20.2702 14.0365 20.4325 12.3403 20.1163 10.7053C19.8 9.07041 19.0174 7.56291 17.8635 6.37633C16.7093 5.18956 15.2336 4.37617 13.6214 4.04639C12.0088 3.71662 10.3373 3.88709 8.82087 4.53306C7.30492 5.17891 6.01512 6.26957 5.11088 7.66125C4.20702 9.05247 3.7268 10.6842 3.7267 12.3501Z" fill="#BEC94A"/>
<path d="M18.0867 26.7017C17.6972 26.702 17.3808 27.0179 17.3808 27.4075C17.3808 27.7972 17.6972 28.1131 18.0867 28.1134C19.3886 28.1134 20.4158 28.3162 21.1005 28.5918C21.4439 28.7301 21.6757 28.8761 21.8132 29.0013C21.8982 29.0786 21.9308 29.1319 21.9428 29.1571C21.9354 29.1699 21.9217 29.1933 21.8905 29.2246C21.7926 29.3226 21.5854 29.462 21.2025 29.601C20.438 29.8784 19.1552 30.0877 17.2319 30.0877C13.2575 30.0877 10.0762 30.2307 7.72879 30.482C6.55592 30.6075 5.57807 30.7612 4.80739 30.9424C4.05883 31.1185 3.42821 31.3374 3.01237 31.6318C2.80153 31.7811 2.57757 31.9981 2.47055 32.3059C2.35182 32.6477 2.41855 32.9808 2.57671 33.2489C2.72117 33.4937 2.93974 33.688 3.16402 33.8432C3.39535 34.0032 3.67737 34.1529 3.99811 34.2954C5.26501 34.858 7.42956 35.4294 10.4723 35.9884C10.8558 36.0588 11.2236 35.8052 11.294 35.4217C11.3644 35.0383 11.1108 34.6705 10.7274 34.6C7.69846 34.0436 5.67537 33.4951 4.57164 33.0049C4.3123 32.8897 4.12152 32.784 3.98708 32.6933C4.20921 32.5809 4.57588 32.4473 5.13 32.317C5.82324 32.1539 6.73879 32.0075 7.87906 31.8854C10.1579 31.6415 13.2846 31.4994 17.2319 31.4994C19.2291 31.4994 20.6981 31.2862 21.6837 30.9287C22.1747 30.7505 22.5921 30.52 22.89 30.2214C23.1996 29.9108 23.399 29.5002 23.3532 29.0316C23.3096 28.5868 23.0579 28.2259 22.7632 27.9576C22.4646 27.686 22.0723 27.4613 21.6271 27.2821C20.7342 26.9227 19.5194 26.7017 18.0867 26.7017Z" fill="#BEC94A"/>
</svg>
