<svg width="59" height="59" viewBox="0 0 59 59" fill="none" xmlns="http://www.w3.org/2000/svg">
<g filter="url(#filter0_d_126_7690)">
<path d="M4 15C4 6.71573 10.7157 0 19 0H40C48.2843 0 55 6.71573 55 15V36C55 44.2843 48.2843 51 40 51H19C10.7157 51 4 44.2843 4 36V15Z" fill="#529DE7"/>
</g>
<path d="M33.75 23C32.505 23 31.5 21.995 31.5 20.75V13.25C31.5 12.005 32.505 11 33.75 11C34.995 11 36 12.005 36 13.25V20.75C36 21.995 34.995 23 33.75 23Z" stroke="#D9D9D9" stroke-width="3" stroke-linecap="round" stroke-linejoin="round"/>
<path d="M42.75 23H40.5V20.75C40.5 19.505 41.505 18.5 42.75 18.5C43.995 18.5 45 19.505 45 20.75C45 21.995 43.995 23 42.75 23Z" stroke="#D9D9D9" stroke-width="3" stroke-linecap="round" stroke-linejoin="round"/>
<path d="M26.25 29C27.495 29 28.5 30.005 28.5 31.25V38.75C28.5 39.995 27.495 41 26.25 41C25.005 41 24 39.995 24 38.75V31.25C24 30.005 25.005 29 26.25 29Z" stroke="#D9D9D9" stroke-width="3" stroke-linecap="round" stroke-linejoin="round"/>
<path d="M17.25 29H19.5V31.25C19.5 32.495 18.495 33.5 17.25 33.5C16.005 33.5 15 32.495 15 31.25C15 30.005 16.005 29 17.25 29Z" stroke="#D9D9D9" stroke-width="3" stroke-linecap="round" stroke-linejoin="round"/>
<path d="M33 29.75C33 28.505 34.005 27.5 35.25 27.5H42.75C43.995 27.5 45 28.505 45 29.75C45 30.995 43.995 32 42.75 32H35.25C34.005 32 33 30.995 33 29.75Z" stroke="#D9D9D9" stroke-width="3" stroke-linecap="round" stroke-linejoin="round"/>
<path d="M35.25 36.5H33V38.75C33 39.995 34.005 41 35.25 41C36.495 41 37.5 39.995 37.5 38.75C37.5 37.505 36.495 36.5 35.25 36.5Z" stroke="#D9D9D9" stroke-width="3" stroke-linecap="round" stroke-linejoin="round"/>
<path d="M27 22.25C27 21.005 25.995 20 24.75 20H17.25C16.005 20 15 21.005 15 22.25C15 23.495 16.005 24.5 17.25 24.5H24.75C25.995 24.5 27 23.495 27 22.25Z" stroke="#D9D9D9" stroke-width="3" stroke-linecap="round" stroke-linejoin="round"/>
<path d="M24.75 15.5H27V13.25C27 12.005 25.995 11 24.75 11C23.505 11 22.5 12.005 22.5 13.25C22.5 14.495 23.505 15.5 24.75 15.5Z" stroke="#D9D9D9" stroke-width="3" stroke-linecap="round" stroke-linejoin="round"/>
<defs>
<filter id="filter0_d_126_7690" x="0" y="0" width="59" height="59" filterUnits="userSpaceOnUse" color-interpolation-filters="sRGB">
<feFlood flood-opacity="0" result="BackgroundImageFix"/>
<feColorMatrix in="SourceAlpha" type="matrix" values="0 0 0 0 0 0 0 0 0 0 0 0 0 0 0 0 0 0 127 0" result="hardAlpha"/>
<feOffset dy="4"/>
<feGaussianBlur stdDeviation="2"/>
<feComposite in2="hardAlpha" operator="out"/>
<feColorMatrix type="matrix" values="0 0 0 0 0 0 0 0 0 0 0 0 0 0 0 0 0 0 0.25 0"/>
<feBlend mode="normal" in2="BackgroundImageFix" result="effect1_dropShadow_126_7690"/>
<feBlend mode="normal" in="SourceGraphic" in2="effect1_dropShadow_126_7690" result="shape"/>
</filter>
</defs>
</svg>
