<svg width="59" height="59" viewBox="0 0 59 59" fill="none" xmlns="http://www.w3.org/2000/svg">
<g filter="url(#filter0_d_126_7675)">
<rect x="4" width="51" height="51" rx="15" fill="#FD6B73"/>
</g>
<path d="M15 11L36.025 16.075L38.2 26.95L30.95 34.2L20.075 32.025L15 11ZM15 11L25.9997 21.9997M29.5 35.65L39.65 25.5L44 29.85L33.85 40L29.5 35.65ZM30.95 24.05C30.95 25.6516 29.6516 26.95 28.05 26.95C26.4484 26.95 25.15 25.6516 25.15 24.05C25.15 22.4484 26.4484 21.15 28.05 21.15C29.6516 21.15 30.95 22.4484 30.95 24.05Z" stroke="#D9D9D9" stroke-width="4" stroke-linecap="round" stroke-linejoin="round"/>
<defs>
<filter id="filter0_d_126_7675" x="0" y="0" width="59" height="59" filterUnits="userSpaceOnUse" color-interpolation-filters="sRGB">
<feFlood flood-opacity="0" result="BackgroundImageFix"/>
<feColorMatrix in="SourceAlpha" type="matrix" values="0 0 0 0 0 0 0 0 0 0 0 0 0 0 0 0 0 0 127 0" result="hardAlpha"/>
<feOffset dy="4"/>
<feGaussianBlur stdDeviation="2"/>
<feComposite in2="hardAlpha" operator="out"/>
<feColorMatrix type="matrix" values="0 0 0 0 0 0 0 0 0 0 0 0 0 0 0 0 0 0 0.25 0"/>
<feBlend mode="normal" in2="BackgroundImageFix" result="effect1_dropShadow_126_7675"/>
<feBlend mode="normal" in="SourceGraphic" in2="effect1_dropShadow_126_7675" result="shape"/>
</filter>
</defs>
</svg>
